Coordinates
version=1
nRows=8
nColumns=36
inDegrees=yes

Units are S.I. units (second, meters, Newtons, ...)
If the header above contains a line with 'inDegrees', this indicates whether rotational values are in degrees (yes) or radians (no).

endheader
time	pelvis_tilt	pelvis_list	pelvis_rotation	pelvis_tx	pelvis_ty	pelvis_tz	hip_flexion_r	hip_adduction_r	hip_rotation_r	knee_angle_r	knee_angle_r_beta	ankle_angle_r	subtalar_angle_r	mtp_angle_r	hip_flexion_l	hip_adduction_l	hip_rotation_l	knee_angle_l	knee_angle_l_beta	ankle_angle_l	subtalar_angle_l	mtp_angle_l	lumbar_extension	lumbar_bending	lumbar_rotation	arm_flex_r	arm_add_r	arm_rot_r	elbow_flex_r	pro_sup_r	arm_flex_l	arm_add_l	arm_rot_l	elbow_flex_l	pro_sup_l
     15.15000000	      5.64725185	     -1.30319020	      1.93346538	      0.75565484	      0.83580501	      0.71742999	     -8.25792846	      4.67223266	      2.19964805	      3.16716841	      0.05527752	      6.45724349	     -5.68094574	     -7.49999987	     16.91504731	     -0.86174844	      0.05688007	     53.58309964	      0.93520151	      5.62400570	    -10.06377437	     -7.49999987	    -10.74156962	      4.04285601	      0.22106985	      5.54175974	    -16.14524033	     -0.97073568	     17.06106019	     94.76222066	      8.22374382	    -12.82225164	     15.40905094	     18.27646330	     94.25218370
     15.16666670	      5.30601472	     -1.09309733	      1.43253332	      0.75334272	      0.83541913	      0.71758667	     -9.55823511	      4.42313127	      1.33884419	      2.63923820	      0.04606340	      7.69463672	     -3.69695617	     -7.49999987	     19.04965677	     -0.32828195	     -0.45713094	     49.19008172	      0.85852889	      6.91687599	     -9.51731110	     -7.49999987	    -10.80864010	      3.76332129	      1.64018602	      7.37758882	    -17.05720167	      1.86202834	     18.44890827	     93.50092954	      8.11427321	    -12.47584117	     16.09379392	     16.71357014	     93.06624688
     15.18333330	      5.06997195	     -0.84308583	      1.10968450	      0.75099165	      0.83171262	      0.71623159	    -11.07114621	      4.22318565	      1.10160943	      1.95709818	      0.03415781	      8.43096525	     -3.18031292	     -7.49999987	     20.93415305	      0.30906891	     -0.57348513	     44.46413077	      0.77604548	      7.43164329	     -9.09571961	     -7.49999987	    -11.10771621	      3.42983338	      2.49453007	      9.32662832	    -18.04763533	      4.59245856	     20.48830774	     93.66396964	      7.36155610	    -12.58260845	     16.21752330	     16.95303615	     94.34351367
     15.20000000	      4.74328762	     -0.65077936	      0.69004587	      0.74720516	      0.82550180	      0.71373753	    -12.55109656	      4.07256050	      1.56574980	      1.27344978	      0.02222589	      9.16470524	     -3.32133816	     -7.49999987	     22.71687757	      0.74893773	     -0.53847806	     39.41797064	      0.68797337	      7.60748073	     -8.59466229	     -7.49999987	    -11.24279613	      3.13528551	      3.55286326	     11.09299728	    -18.79919947	      4.52524035	     22.40266640	     91.98269090	      6.82171019	    -12.38084098	     15.61622075	     16.73590972	     92.74354216
     15.21666670	      4.20357994	     -0.57698457	      0.40466277	      0.74322887	      0.81882780	      0.71106581	    -13.77836992	      4.03389486	      1.27490872	      0.78760636	      0.01374632	     10.51346731	     -2.02068984	     -7.49999987	     24.47162796	      1.00888561	     -0.14526580	     33.82540519	      0.59036469	      7.75189773	     -7.94625940	     -7.49999987	    -11.00316600	      3.04679767	      4.50713756	     12.71611566	    -19.93683385	      5.82294006	     24.80320253	     90.07419414	      6.81166300	    -11.80539669	     14.80833981	     15.07569137	     91.27865447
     15.23333330	      3.83359192	     -0.45459108	      0.08764244	      0.73985606	      0.81325548	      0.70940889	    -15.10960283	      3.91656840	      1.54212158	      0.51660104	      0.00901639	     11.73825361	     -1.39477744	     -7.49999987	     25.53336344	      1.20916036	      0.46553401	     27.23167155	      0.47528233	      8.21626076	     -6.61591938	     -7.49999987	    -11.09805602	      2.85740501	      5.11953458	     14.47351945	    -20.84140365	      6.38169387	     27.34842007	     90.08773185	      6.29279956	    -11.60480123	     13.71465598	     14.72635453	     92.04193167
     15.25000000	      3.27754052	     -0.45869118	     -0.02941671	      0.73779408	      0.80749092	      0.70860737	    -16.16494114	      3.93642157	      1.64900127	      0.39295614	      0.00685838	     13.11717976	     -0.44581085	     -7.49999987	     26.43936008	      1.30578348	      1.72725669	     20.18988965	      0.35238005	      8.86903435	     -4.98940659	     -7.49999987	    -10.87713117	      2.84852240	      5.50823541	     16.23256124	    -21.56503313	      6.93757358	     29.37027288	     89.52564815	      5.92799869	    -11.20224055	     12.34740673	     13.84512964	     92.22972904
     15.26666670	      2.85050170	     -0.49338246	     -0.03835450	      0.73788563	      0.80184088	      0.70918015	    -17.28983319	      3.98227415	      2.10160483	      0.33616887	      0.00586725	     14.44803180	      0.20015045	     -7.49999987	     26.92350275	      1.25284170	      3.40298720	     13.43689171	      0.23451800	      9.74861495	     -3.11074331	     -7.49999987	    -10.74703839	      2.84834776	      5.42588509	     17.90506843	    -21.93709010	      6.85485793	     31.45025093	     91.80268530	      5.17381270	    -10.76745584	      7.25812805	     13.42084539	     98.41676580
